<?xml version="1.0" standalone="no"?>
<!DOCTYPE svg PUBLIC "-//W3C//DTD SVG 20010904//EN"
 "http://www.w3.org/TR/2001/REC-SVG-20010904/DTD/svg10.dtd">
<svg version="1.0" xmlns="http://www.w3.org/2000/svg"
 width="300.000000pt" height="35.000000pt" viewBox="0 0 300.000000 35.000000"
 preserveAspectRatio="xMidYMid meet">
<metadata>
Created by potrace 1.10, written by Peter Selinger 2001-2011
</metadata>
<g transform="translate(0.000000,35.000000) scale(0.100000,-0.100000)"
fill="#000000" stroke="none">
<path d="M160 175 l0 -172 26 5 c24 4 26 8 20 41 -3 20 -6 93 -6 162 0 118 -1
127 -20 132 -19 5 -20 0 -20 -168z"/>
<path d="M577 336 c-75 -27 -107 -78 -107 -169 0 -85 51 -145 138 -161 29 -5
32 -3 32 19 0 19 -5 25 -20 25 -56 0 -110 62 -110 125 0 63 54 125 110 125 15
0 20 6 20 25 0 28 -9 30 -63 11z"/>
<path d="M670 336 c0 -9 0 -19 -1 -23 0 -4 17 -12 38 -18 73 -21 107 -120 64
-191 -17 -27 -36 -39 -93 -57 -22 -8 -12 -50 11 -43 9 3 28 8 42 11 39 10 86
64 100 116 22 84 -27 183 -101 204 -14 3 -33 9 -42 11 -12 4 -18 0 -18 -10z"/>
<path d="M900 179 l0 -169 26 0 c25 0 26 2 20 37 -3 21 -6 95 -6 164 0 118 -1
127 -20 132 -19 5 -20 0 -20 -164z"/>
<path d="M1200 323 c0 -23 1 -23 140 -23 139 0 140 0 140 23 0 22 -1 22 -140
22 -139 0 -140 0 -140 -22z"/>
<path d="M1530 178 c0 -161 1 -168 20 -168 19 0 20 7 20 168 0 161 -1 168 -20
168 -19 0 -20 -7 -20 -168z"/>
<path d="M1897 336 c-73 -27 -110 -80 -110 -161 0 -81 37 -134 110 -161 54
-19 63 -17 63 11 0 19 -5 25 -20 25 -83 0 -137 109 -95 190 16 32 61 60 95 60
15 0 20 6 20 25 0 28 -9 30 -63 11z"/>
<path d="M1980 325 c0 -19 5 -25 20 -25 84 0 137 -108 95 -190 -16 -32 -61
-60 -95 -60 -15 0 -20 -6 -20 -26 0 -24 2 -25 33 -19 103 22 164 116 137 215
-16 58 -61 105 -114 119 -58 14 -56 15 -56 -14z"/>
<path d="M2220 178 c0 -161 1 -168 20 -168 19 0 20 7 20 168 0 161 -1 168 -20
168 -19 0 -20 -7 -20 -168z"/>
<path d="M2500 178 c0 -161 1 -168 20 -168 19 0 20 7 20 168 0 161 -1 168 -20
168 -19 0 -20 -7 -20 -168z"/>
<path d="M2717 336 c-74 -27 -108 -78 -108 -161 0 -94 46 -151 139 -168 29 -6
32 -4 32 18 0 19 -5 25 -20 25 -56 0 -110 62 -110 124 0 66 52 126 110 126 15
0 20 6 20 25 0 28 -9 30 -63 11z"/>
<path d="M2800 325 c0 -19 5 -25 20 -25 34 0 79 -28 95 -60 42 -82 -11 -190
-95 -190 -13 0 -20 -7 -20 -19 0 -28 10 -31 58 -19 50 12 96 60 111 115 15 52
13 72 -8 118 -24 52 -56 80 -106 94 -54 15 -55 15 -55 -14z"/>
<path d="M230 320 c0 -18 7 -20 58 -20 80 0 111 -35 82 -91 -9 -16 -22 -19
-75 -19 -63 0 -65 -1 -65 -25 0 -24 2 -25 64 -25 74 0 108 20 126 74 9 27 8
42 -4 69 -19 46 -41 57 -120 57 -59 0 -66 -2 -66 -20z"/>
<path d="M970 320 c0 -18 7 -20 59 -20 82 0 111 -33 81 -91 -9 -16 -22 -19
-75 -19 -63 0 -65 -1 -65 -25 0 -22 4 -25 38 -25 34 0 40 -5 79 -64 31 -47 49
-65 70 -69 15 -3 29 -4 30 -3 1 1 -19 32 -44 68 l-46 67 26 21 c38 30 52 80
33 123 -19 46 -41 57 -120 57 -59 0 -66 -2 -66 -20z"/>
<path d="M1600 320 c0 -18 7 -20 80 -20 73 0 80 2 80 20 0 18 -7 20 -80 20
-73 0 -80 -2 -80 -20z"/>
<path d="M1320 140 c0 -123 1 -130 20 -130 19 0 20 7 20 130 0 123 -1 130 -20
130 -19 0 -20 -7 -20 -130z"/>
<path d="M1600 183 c0 -22 4 -23 66 -23 61 0 65 1 62 21 -3 19 -10 21 -66 23
-58 1 -62 0 -62 -21z"/>
<path d="M2290 30 c0 -18 7 -20 80 -20 73 0 80 2 80 20 0 18 -7 20 -80 20 -73
0 -80 -2 -80 -20z"/>
</g>
</svg>
